<svg width="67" height="24" viewBox="0 0 67 24" fill="none" xmlns="http://www.w3.org/2000/svg">
<path d="M3.74391 23.7602L0 21.1202V20.2402H3.74391V23.7602Z" fill="#CB070E"/>
<path d="M0 0H66.6416L59.5282 10.56L66.6416 21.12H0V0Z" fill="#FF0000"/>
<path d="M29.225 6.55976H31.817V17.7598H29.225V13.1678H24.137V17.7598H21.545V6.55976H24.137V10.9758H29.225V6.55976ZM39.8909 17.9518C36.3549 17.9518 33.7629 15.4878 33.7629 12.1598C33.7629 8.83177 36.3549 6.36777 39.8909 6.36777C43.4109 6.36777 46.0189 8.81577 46.0189 12.1598C46.0189 15.5038 43.4109 17.9518 39.8909 17.9518ZM39.8909 15.7438C41.8909 15.7438 43.3949 14.2878 43.3949 12.1598C43.3949 10.0318 41.8909 8.57577 39.8909 8.57577C37.8909 8.57577 36.3869 10.0318 36.3869 12.1598C36.3869 14.2878 37.8909 15.7438 39.8909 15.7438ZM50.1307 17.7598V8.67177H46.5467V6.55976H56.3067V8.67177H52.7227V17.7598H50.1307Z" fill="white"/>
<path d="M16.0915 9.49372C15.8438 8.84907 15.4836 8.27047 15.0335 7.79411L14.6621 7.40019C14.6494 7.38718 14.6343 7.37795 14.6178 7.37331C14.6014 7.36866 14.5843 7.36875 14.5679 7.37355C14.5515 7.37836 14.5364 7.38774 14.5239 7.40088C14.5114 7.41401 14.5018 7.43049 14.4961 7.44888L14.3302 7.99919C14.2268 8.34442 14.0367 8.69703 13.7673 9.04374C13.7495 9.06587 13.7291 9.07177 13.715 9.07325C13.701 9.07472 13.6793 9.07177 13.6601 9.05112C13.6423 9.03341 13.6333 9.00685 13.6346 8.9803C13.6818 8.09213 13.4521 7.09037 12.9492 6.00008C12.5331 5.09421 11.955 4.38751 11.2326 3.89474L10.7054 3.53623C10.6365 3.48902 10.5484 3.55098 10.5523 3.64393L10.5803 4.3521C10.5995 4.83602 10.551 5.26387 10.4361 5.61943C10.2957 6.05467 10.1085 6.60002 10.1085 6.60002C10.1085 6.60002 9.58322 7.28025 9.35975 7.48002C8.82153 7.95828 8.34682 8.79224 8.04253 9.49372C7.73898 10.2013 7.48816 10.7812 7.48779 11.571C7.48779 12.2674 7.60649 12.9416 7.84134 13.5775C8.0681 14.1897 8.39534 14.7454 8.80497 15.2137C9.2185 15.6858 9.6984 16.0576 10.2332 16.3158C10.7871 16.5843 11.3742 16.72 11.9805 16.72C12.5867 16.72 13.1739 16.5843 13.7278 16.3172C14.2612 16.0606 14.7464 15.6862 15.156 15.2152C15.5695 14.743 15.8937 14.1913 16.1196 13.579C16.3541 12.9448 16.4744 12.2621 16.4732 11.5725C16.4732 10.8525 16.3455 10.1532 16.0915 9.49372Z" fill="#FFD109" fill-opacity="0.58"/>
<path d="M15.3746 9.97536C15.1474 9.37369 14.8172 8.83366 14.4047 8.38905L14.0642 8.0214C14.0526 8.00925 14.0387 8.00064 14.0237 7.9963C14.0086 7.99197 13.9929 7.99205 13.9779 7.99654C13.9629 8.00102 13.949 8.00978 13.9376 8.02204C13.9261 8.03429 13.9173 8.04968 13.9121 8.06684L13.76 8.58046C13.6652 8.90268 13.4909 9.23178 13.2441 9.55537C13.2277 9.57603 13.209 9.58154 13.1961 9.58291C13.1832 9.58429 13.1633 9.58154 13.1458 9.56226C13.1294 9.54573 13.1212 9.52095 13.1224 9.49616C13.1657 8.66721 12.9551 7.73223 12.4941 6.71462C12.1127 5.86914 11.5827 5.20956 10.9205 4.74964L10.4373 4.41503C10.3741 4.37097 10.2934 4.4288 10.2969 4.51555L10.3226 5.17651C10.3402 5.62817 10.2957 6.0275 10.1904 6.35936C10.0617 6.76557 9.87687 7.14287 9.64054 7.48161C9.47607 7.71703 9.28965 7.92996 9.0848 8.11641C8.59143 8.56278 8.19026 9.13475 7.91132 9.78946C7.63307 10.4499 7.48813 11.177 7.48779 11.9142C7.48779 12.5641 7.5966 13.1934 7.81187 13.7869C8.01974 14.3583 8.31971 14.8769 8.6952 15.314C9.07427 15.7546 9.51418 16.1016 10.0044 16.3426C10.5122 16.5932 11.0504 16.7199 11.6061 16.7199C12.1618 16.7199 12.7 16.5932 13.2078 16.344C13.6968 16.1044 14.1415 15.755 14.517 15.3154C14.896 14.8747 15.1932 14.3597 15.4003 13.7883C15.6153 13.1964 15.7255 12.5592 15.7244 11.9155C15.7244 11.2436 15.6074 10.5909 15.3746 9.97536Z" fill="#FFD109" fill-opacity="0.58"/>
</svg>
