<svg xmlns="http://www.w3.org/2000/svg" viewBox="0 0 325.26 51.3"><defs><style>.cls-1{fill:#ed1c24;}.cls-2{fill:#0061af;}</style></defs><title>logo-mbf-xanhdo</title><g id="Layer_2" data-name="Layer 2"><g id="Layer_1-2" data-name="Layer 1"><path class="cls-1" d="M250.72,17.34h0Zm28.33,7.24h0a9.94,9.94,0,0,0-2.2-4.41h0a11,11,0,0,0-5.78-3.37,41.67,41.67,0,0,0-10-.88c-4.91,0-8.07.58-10.32,1.43a9.06,9.06,0,0,0-2.89,1.9V17.59h-6.36V50.86h6.39V29.73c0-5.52,5.64-7.7,11.26-7.7H262c5.62,0,11.31,2.18,11.31,7.7V50.86h6.31V32.71a39.74,39.74,0,0,0-.52-8.13Z"/><path class="cls-1" d="M171.58,15.81h6.36a51.31,51.31,0,0,1,.55-8.13A7.19,7.19,0,0,1,180.42,4,10,10,0,0,1,185.07,1a41.71,41.71,0,0,1,9.47-1h6l-5.74,5.6h-2.44c-8.45,0-7.86,5.41-7.86,10.2h14.87l-6,6.12h-9l0,28.88h-6.42V21.93h-6.36V15.81Z"/><polygon class="cls-1" points="165.23 4.87 165.23 11.39 171.59 11.39 171.59 4.87 165.23 4.87 165.23 4.87"/><path class="cls-2" d="M116.13,33.41a28.22,28.22,0,0,1-1.38,9.64c-.93,2.53-4.09,8.25-19.45,8.25s-18.52-5.72-19.45-8.25a28.22,28.22,0,0,1-1.38-9.64,28.18,28.18,0,0,1,1.38-9.64c.93-2.53,4.09-8.25,19.45-8.25s18.52,5.72,19.45,8.25a28.18,28.18,0,0,1,1.38,9.64Zm-8-7.65h0a5,5,0,0,0-3.2-2.91c-1.65-.53-4.54-.84-9.59-.91s-7.94.38-9.59.91a5,5,0,0,0-3.2,2.91,22.68,22.68,0,0,0-1,7.65,22.68,22.68,0,0,0,1,7.65A5,5,0,0,0,85.71,44c1.65.53,4.54.84,9.59.91s7.94-.38,9.59-.91a5,5,0,0,0,3.2-2.91,22.68,22.68,0,0,0,1-7.65,22.68,22.68,0,0,0-1-7.65Z"/><path class="cls-1" d="M236.81,33.41a28,28,0,0,1-1.38,9.64c-.92,2.53-4.09,8.25-19.44,8.25s-18.53-5.72-19.45-8.25a28,28,0,0,1-1.38-9.64,27.93,27.93,0,0,1,1.38-9.64c.92-2.53,4.09-8.25,19.45-8.25s18.52,5.72,19.44,8.25a27.93,27.93,0,0,1,1.38,9.64Zm-8-7.65h0a5,5,0,0,0-3.2-2.91c-1.64-.53-4.53-.84-9.58-.91s-8,.38-9.59.91a5,5,0,0,0-3.2,2.91,22.68,22.68,0,0,0-1,7.65,22.68,22.68,0,0,0,1,7.65A5,5,0,0,0,206.4,44c1.64.53,4.53.84,9.59.91s7.94-.38,9.58-.91a5,5,0,0,0,3.2-2.91,22.6,22.6,0,0,0,1-7.65,22.6,22.6,0,0,0-1-7.65Z"/><path class="cls-2" d="M40.71,17.11Zm0,0Zm28.67,7.41h0a10,10,0,0,0-2.22-4.41h0a11.24,11.24,0,0,0-5.83-3.37,41.82,41.82,0,0,0-10-.87c-4.95,0-8.32.39-10.59,1.25h0a9.29,9.29,0,0,0-4.58,3.65A10.22,10.22,0,0,0,31.05,17c-2.35-.79-6.72-1.17-12.23-1.17-4.14,0-7,.29-8.7.89h0a10.93,10.93,0,0,0-3.74,2.48V17.53H0V50.8H6.35V29.67C6.35,24.15,12,22,17.63,22h2.84c5.67,0,11.33,2.18,11.33,7.7V50.8h6.35V29.67c0-5.52,5.54-7.7,11.21-7.7H52.2c5.67,0,11.35,2.18,11.35,7.7V50.8H69.9V32.66a39.92,39.92,0,0,0-.52-8.14Z"/><path class="cls-1" d="M321.94,35.84h3.25c.05-.78.07-1.58.07-2.43a28.2,28.2,0,0,0-1.37-9.64c-.93-2.53-4.09-8.25-19.45-8.25S285.91,21.24,285,23.77a27.93,27.93,0,0,0-1.38,9.64A28,28,0,0,0,285,43.05c.92,2.53,4.09,8.25,19.45,8.25s18.52-5.72,19.45-8.25c.08-.22.15-.45.23-.69h-7.67A5.18,5.18,0,0,1,314,44c-1.64.53-4.53.84-9.58.91s-7.95-.38-9.59-.91a5,5,0,0,1-3.2-2.91,17.83,17.83,0,0,1-.92-5.18h31.21v0Zm-27.09-13h0c1.64-.53,4.54-.84,9.59-.91s7.94.38,9.58.91a5,5,0,0,1,3.21,2.91,15.7,15.7,0,0,1,.83,4.09H290.81a15.6,15.6,0,0,1,.84-4.09,5,5,0,0,1,3.2-2.91Z"/><polygon class="cls-2" points="165.23 15.81 165.23 50.8 171.59 50.8 171.59 15.81 165.23 15.81 165.23 15.81"/><path class="cls-2" d="M159.37,23.77c-.92-2.53-4.09-8.25-19.45-8.25-5.88,0-10,.84-12.82,2V0h-6.35V50.89h6.35V49.28c2.86,1.18,6.94,2,12.82,2,15.36,0,18.53-5.71,19.45-8.25a27.93,27.93,0,0,0,1.38-9.64,28,28,0,0,0-1.38-9.64Zm-6.66,17.29h0a5,5,0,0,1-3.2,2.91c-1.65.53-4.54.84-9.59.91s-7-.38-8.68-.91a4.93,4.93,0,0,1-3.2-2.91,17.73,17.73,0,0,1-.94-5.38V31.14a17.58,17.58,0,0,1,.94-5.37,4.92,4.92,0,0,1,3.2-2.92c1.64-.53,3.63-.84,8.68-.91s7.94.38,9.59.91a5,5,0,0,1,3.2,2.92,22.56,22.56,0,0,1,1,7.64,22.59,22.59,0,0,1-1,7.65Z"/></g></g></svg>